mtllib DoorDRotShape.mtl
s 1
v 0.041654 -0.280491 -1.231665
v 0.041654 -0.280491 0.000000
v 0.041654 -0.280491 0.000000
v 0.041654 -0.082860 0.000000
v 0.041654 -0.082860 0.000000
v 0.035446 -0.094855 -1.225926
v 0.035446 -0.094855 -1.225926
v 0.011672 -0.015061 0.000093
v 0.011672 -0.015061 0.000093
v 0.010619 -0.519961 0.000069
v 0.010600 -0.014721 -1.225926
v 0.004081 -0.518275 -1.171035
v 0.004081 -0.518275 -1.171035
v -0.032360 0.024967 -1.231838
v -0.032360 0.024967 -1.231838
v -0.032360 0.024967 -1.231838
v -0.032825 0.022967 0.001735
v -0.032825 0.022967 0.001735
v -0.074297 0.025304 -1.231838
v -0.087444 -0.156177 0.000000
v -0.087444 -0.156177 0.000000
v -0.087444 -0.156177 0.000000
v -0.087444 -0.156177 0.000000
v -0.087444 -0.156177 0.000000
v -0.087531 0.024582 0.013783
v -0.093589 -0.519961 0.000052
v -0.107306 -0.518631 -1.172103
v 0.041654 -0.280491 -1.231665
v 0.041654 -0.280491 0.000000
v 0.041654 -0.082860 0.000000
v 0.035446 -0.094855 -1.225926
v 0.011672 -0.015061 0.000093
v 0.010619 -0.519961 0.000069
v 0.010600 -0.014721 -1.225926
v 0.004081 -0.518275 -1.171035
v -0.032360 0.024967 -1.231838
v -0.032825 0.022967 0.001735
v -0.074297 0.025304 -1.231838
v -0.087444 -0.156177 0.000000
v -0.087444 -0.156177 0.000000
v -0.087531 0.024582 0.013783
v -0.093589 -0.519961 0.000052
v -0.107306 -0.518631 -1.172103
v -0.107306 -0.518631 -1.172103
v -0.032360 0.024967 -1.231838
v -0.032825 0.022967 0.001735
v -0.074297 0.025304 -1.231838
v -0.087531 0.024582 0.013783
v 0.225196 -0.001194 -0.229626
v 0.225196 0.078754 -0.229626
v 0.222461 0.005351 -0.208914
v 0.222439 0.071821 -0.208879
v 0.151538 0.022555 -0.156903
v 0.151538 0.022555 -0.156903
v 0.151538 0.022555 -0.156903
v 0.151538 0.061509 -0.156903
v 0.151538 0.061509 -0.156903
v 0.151538 0.061509 -0.156903
v 0.132382 0.106215 -0.178055
v 0.132270 -0.025860 -0.178150
v 0.127460 -0.033733 -0.196564
v 0.127460 0.118444 -0.196564
v 0.126334 0.022283 -0.148377
v 0.126334 0.022283 -0.148377
v 0.126334 0.022283 -0.148377
v 0.126334 0.053303 -0.148377
v 0.126334 0.053303 -0.148377
v 0.126334 0.053303 -0.148377
v 0.041962 0.005351 -0.147854
v 0.041961 0.071807 -0.147855
v 0.029724 -0.001194 -0.163503
v 0.029724 0.078754 -0.163503
v 0.014119 -0.059680 -0.006577
v 0.014119 -0.059680 -0.006577
v 0.014119 -0.037073 -0.006577
v 0.014119 -0.037073 -0.006577
v -0.004601 -0.061934 -0.031298
v -0.004601 -0.061934 -0.031298
v -0.004601 -0.031122 -0.031298
v -0.004601 -0.031122 -0.031298
v 0.225196 -0.001194 -0.229626
v 0.225196 0.078754 -0.229626
v 0.127460 -0.033733 -0.196564
v 0.127460 0.118444 -0.196564
v 0.029724 -0.001194 -0.163503
v 0.029724 0.078754 -0.163503
vn -0.376144 -0.091664 -0.922016
vn 0.000032 0.000198 1.000000
vn 0.000000 0.000000 1.000000
vn 0.000621 -0.001094 0.999999
vn 0.000000 0.000000 1.000000
vn 0.189058 0.058618 -0.980215
vn -0.376144 -0.091664 -0.922016
vn 0.022708 -0.016606 0.999604
vn 0.000621 -0.001094 0.999999
vn 0.000032 0.000198 1.000000
vn 0.189058 0.058618 -0.980215
vn 0.006937 -0.110173 -0.993888
vn -0.376144 -0.091664 -0.922016
vn 0.189058 0.058618 -0.980215
vn 0.006937 -0.110173 -0.993888
vn -0.376144 -0.091664 -0.922016
vn 0.212387 -0.074193 0.974365
vn 0.022708 -0.016606 0.999604
vn 0.006937 -0.110173 -0.993888
vn 0.212387 -0.074193 0.974365
vn 0.022708 -0.016606 0.999604
vn 0.000621 -0.001094 0.999999
vn 0.000032 0.000198 1.000000
vn 0.000000 0.000000 1.000000
vn 0.212387 -0.074193 0.974365
vn 0.000032 0.000198 1.000000
vn 0.006937 -0.110173 -0.993888
vn 0.997984 -0.063403 -0.002708
vn 0.997984 -0.063403 -0.002708
vn 0.982823 0.184518 -0.003572
vn 0.982823 0.184518 -0.003572
vn 0.825543 0.564335 -0.002004
vn 0.989771 -0.142638 -0.002793
vn 0.825543 0.564335 -0.002004
vn 0.989771 -0.142638 -0.002793
vn 0.364787 0.931091 0.000936
vn 0.364787 0.931091 0.000936
vn -0.683579 0.729874 -0.001958
vn -0.998973 0.045126 -0.004013
vn -0.999789 0.016890 0.011719
vn -0.683579 0.729874 -0.001958
vn -0.999789 0.016890 0.011719
vn -0.998973 0.045126 -0.004013
vn -0.999789 0.016890 0.011719
vn 0.364787 0.931091 0.000936
vn 0.364787 0.931091 0.000936
vn -0.683579 0.729874 -0.001958
vn -0.683579 0.729874 -0.001958
vn 0.819874 -0.513001 0.254238
vn 0.832753 0.470725 0.291444
vn 0.706286 -0.401489 0.583066
vn 0.713622 0.387234 0.583776
vn 0.696569 -0.681119 0.225541
vn 0.696569 -0.681119 0.225541
vn 0.451733 -0.338424 0.825474
vn 0.413989 0.351946 0.839492
vn 0.359454 0.591548 0.721709
vn 0.359454 0.591548 0.721709
vn 0.212892 0.664033 0.716754
vn 0.229696 -0.694886 0.681449
vn 0.129161 -0.912136 0.389006
vn 0.158658 0.863428 0.478874
vn 0.138731 -0.343398 0.928887
vn -0.313835 -0.597933 -0.737553
vn -0.313835 -0.597933 -0.737553
vn 0.088159 0.325646 0.941373
vn -0.672486 0.692833 -0.260279
vn -0.672486 0.692833 -0.260279
vn -0.246363 -0.418405 0.874210
vn -0.240561 0.384586 0.891192
vn -0.560847 -0.528488 0.637300
vn -0.548662 0.487775 0.679004
vn 0.696569 -0.681119 0.225541
vn 0.696569 -0.681119 0.225541
vn 0.359454 0.591548 0.721709
vn 0.359454 0.591548 0.721709
vn -0.313835 -0.597933 -0.737553
vn -0.313835 -0.597933 -0.737553
vn -0.672486 0.692833 -0.260279
vn -0.672486 0.692833 -0.260279
vn -0.320440 0.000000 -0.947269
vn -0.320440 0.000000 -0.947269
vn -0.320440 0.000000 -0.947269
vn -0.320440 0.000000 -0.947269
vn -0.320441 0.000000 -0.947269
vn -0.320441 0.000000 -0.947269
vt 0.589862 0.192618
vt 0.589862 0.192618
vt 0.589862 0.192618
vt 0.589862 0.278090
vt 0.589862 0.278090
vt 0.591472 0.272903
vt 0.591472 0.272903
vt 0.597634 0.303682
vt 0.597634 0.303682
vt 0.597907 0.136141
vt 0.597912 0.303770
vt 0.599602 0.136495
vt 0.599602 0.136495
vt 0.609049 0.313105
vt 0.609049 0.313105
vt 0.609049 0.313105
vt 0.609169 0.312628
vt 0.609169 0.312628
vt 0.619920 0.313186
vt 0.623328 0.246382
vt 0.623328 0.246382
vt 0.623328 0.246382
vt 0.623328 0.246382
vt 0.623328 0.246382
vt 0.623350 0.313013
vt 0.624921 0.136141
vt 0.628476 0.136421
vt 0.023953 0.189793
vt 0.697141 0.189793
vt 0.697141 0.408708
vt 0.026569 0.395421
vt 0.697179 0.474254
vt 0.697169 0.045142
vt 0.026569 0.474479
vt 0.066247 0.046048
vt 0.023875 0.498391
vt 0.697851 0.497168
vt 0.670620 0.521533
vt 0.064212 0.309866
vt 0.064212 0.309866
vt 0.056845 0.520987
vt 0.064185 -0.039428
vt 0.635027 -0.038544
vt 0.635027 -0.038544
vt 0.894652 0.908904
vt 0.894652 0.908904
vt 0.894652 0.908904
vt 0.894652 0.908904
vt 0.000000 0.244788
vt 0.000000 0.755212
vt 0.013990 0.287641
vt 0.014099 0.712454
vt 1.000000 0.000000
vt 1.000000 1.000000
vt 0.376818 0.403597
vt 0.376818 0.648854
vt 1.000000 0.000000
vt 1.000000 1.000000
vt 0.474819 0.924573
vt 0.475394 0.074843
vt 0.500000 0.000000
vt 0.500000 1.000000
vt 0.505759 0.401761
vt 1.000000 0.000000
vt 1.000000 1.000000
vt 0.505759 0.598241
vt 1.000000 0.000000
vt 1.000000 1.000000
vt 0.937390 0.287638
vt 0.937395 0.712366
vt 1.000000 0.244788
vt 1.000000 0.755212
vt 0.000000 0.000000
vt 0.000000 1.000000
vt 0.000000 0.000000
vt 0.000000 1.000000
vt 0.000000 0.000000
vt 0.000000 1.000000
vt 0.000000 0.000000
vt 0.000000 1.000000
vt 0.800133 0.802928
vt 0.800133 0.802928
vt 0.800133 0.802928
vt 0.800133 0.802927
vt 0.800133 0.802928
vt 0.800133 0.802928
g DoorDRotShape
usemtl engine_m
f 13/13/13 7/7/7 1/1/1
f 2/2/2 26/26/26 10/10/10
f 27/27/27 15/15/15 12/12/12
f 11/11/11 6/6/6 14/14/14
f 7/7/7 13/13/13 16/16/16
f 25/25/25 20/20/20 17/17/17
f 21/21/21 8/8/8 18/18/18
f 4/4/4 9/9/9 22/22/22
f 26/26/26 2/2/2 23/23/23
f 3/3/3 5/5/5 24/24/24
f 19/19/19 15/15/15 27/27/27
usemtl famil_vDoorDNorm_m
f 35/35/35 29/29/29 33/33/33
f 29/29/29 35/35/35 29/29/29
f 28/28/28 29/29/29 35/35/35
f 29/29/29 28/28/28 29/29/29
f 31/31/31 29/29/29 28/28/28
f 29/29/29 31/31/31 30/30/30
f 34/34/34 30/30/30 31/31/31
f 30/30/30 34/34/34 32/32/32
f 34/34/34 32/32/32 34/34/34
f 32/32/32 34/34/34 37/37/37
f 36/36/36 37/37/37 34/34/34
usemtl famil_vInt_m
f 38/38/38 39/39/39 41/41/41
f 39/39/39 38/38/38 43/43/43
f 43/43/43 43/43/43 38/38/38
f 43/43/43 43/43/43 44/44/44
f 44/44/44 44/44/44 43/43/43
f 44/44/44 44/44/44 40/40/40
f 42/42/42 40/40/40 44/44/44
usemtl famil_vSide_m
f 47/47/47 46/46/46 45/45/45
f 46/46/46 47/47/47 48/48/48
usemtl family_vTrim2_m
f 73/73/73 65/65/65 53/53/53
f 65/65/65 73/73/73 78/78/78
f 78/78/78 78/78/78 73/73/73
f 78/78/78 78/78/78 57/57/57
f 57/57/57 57/57/57 78/78/78
f 57/57/57 57/57/57 54/54/54
f 75/75/75 54/54/54 57/57/57
f 54/54/54 75/75/75 74/74/74
f 74/74/74 74/74/74 75/75/75
f 74/74/74 74/74/74 58/58/58
f 58/58/58 58/58/58 74/74/74
f 58/58/58 58/58/58 76/76/76
f 67/67/67 76/76/76 58/58/58
f 76/76/76 67/67/67 79/79/79
f 79/79/79 79/79/79 67/67/67
f 79/79/79 79/79/79 68/68/68
f 68/68/68 68/68/68 79/79/79
f 68/68/68 68/68/68 80/80/80
f 64/64/64 80/80/80 68/68/68
f 80/80/80 64/64/64 77/77/77
f 77/77/77 77/77/77 64/64/64
f 77/77/77 77/77/77 49/49/49
f 49/49/49 49/49/49 77/77/77
f 49/49/49 49/49/49 51/51/51
f 50/50/50 51/51/51 49/49/49
f 51/51/51 50/50/50 52/52/52
f 62/62/62 52/52/52 50/50/50
f 52/52/52 62/62/62 59/59/59
f 62/62/62 59/59/59 62/62/62
f 59/59/59 62/62/62 70/70/70
f 72/72/72 70/70/70 62/62/62
f 70/70/70 72/72/72 69/69/69
f 71/71/71 69/69/69 72/72/72
f 69/69/69 71/71/71 69/69/69
f 61/61/61 69/69/69 71/71/71
f 69/69/69 61/61/61 60/60/60
f 49/49/49 60/60/60 61/61/61
f 60/60/60 49/49/49 60/60/60
f 51/51/51 60/60/60 49/49/49
f 60/60/60 51/51/51 55/55/55
f 52/52/52 55/55/55 51/51/51
f 55/55/55 52/52/52 56/56/56
f 59/59/59 56/56/56 52/52/52
f 56/56/56 59/59/59 66/66/66
f 70/70/70 66/66/66 59/59/59
f 66/66/66 70/70/70 63/63/63
f 69/69/69 63/63/63 70/70/70
f 63/63/63 69/69/69 63/63/63
f 60/60/60 63/63/63 69/69/69
f 63/63/63 60/60/60 55/55/55
usemtl Windsheild_m
f 83/83/83 82/82/82 81/81/81
f 82/82/82 83/83/83 84/84/84
f 83/83/83 84/84/84 83/83/83
f 84/84/84 83/83/83 86/86/86
f 85/85/85 86/86/86 83/83/83
